<svg xmlns="http://www.w3.org/2000/svg" viewBox="0 0 125 60" width="125" height="60">
  <style>
    :root {
      --primary: #2a6fb8;
      --secondary: #9CA3AF;
    }
  </style>
  <!-- Clipboard outline -->
  <rect x="5" y="8" width="40" height="48" rx="3" ry="3" fill="none" stroke="var(--primary)" stroke-width="3"/>
  
  <!-- Clipboard clip at top -->
  <rect x="14" y="5" width="22" height="7" fill="white"/>
  <rect x="15" y="4.5" width="20" height="7" rx="2" ry="2" fill="var(--primary)"/>
  <circle cx="25" cy="6" r="4" fill="var(--primary)"/>
  <circle cx="25" cy="6" r="2" fill="white"/>
  
  <!-- Horizontal lines inside clipboard -->
  <rect x="12" y="17" width="26" height="8" rx="4" ry="4" fill="var(--primary)"/>
  <rect x="12" y="29" width="26" height="8" rx="4" ry="4" fill="var(--secondary)"/>
  <rect x="12" y="41" width="26" height="8" rx="4" ry="4" fill="var(--secondary)"/>
  
  <!-- Text "clipr" -->
  <svg x="54" y="20"width="68.136" height="23.64" viewBox="0 0 68.136 23.64" xmlns="http://www.w3.org/2000/svg"><g id="svgGroup" stroke-linecap="round" fill-rule="evenodd" font-size="9pt" stroke="var(--primary)" stroke-width="0.25mm" fill="var(--primary)" style="stroke:var(--primary);stroke-width:0.25mm;fill:var(--primary)"><path d="M 64.488 18.552 L 57.936 18.552 L 57.936 17.004 L 59.904 17.004 L 59.904 7.464 L 57.936 7.464 L 57.936 5.916 L 61.44 5.916 L 61.812 8.904 Q 62.544 7.344 63.588 6.492 Q 64.632 5.64 66.348 5.64 Q 66.876 5.64 67.29 5.718 Q 67.704 5.796 68.136 5.916 L 67.548 7.716 Q 67.152 7.608 66.828 7.554 Q 66.504 7.5 66.084 7.5 Q 64.632 7.5 63.588 8.532 Q 62.544 9.564 61.92 11.652 L 61.92 17.004 L 64.488 17.004 L 64.488 18.552 Z M 45.432 17.364 L 45.432 23.388 L 43.416 23.64 L 43.416 5.916 L 45.132 5.916 L 45.3 7.68 Q 45.996 6.708 46.962 6.18 Q 47.928 5.652 49.068 5.652 Q 50.748 5.652 51.75 6.468 Q 52.752 7.284 53.196 8.766 Q 53.64 10.248 53.64 12.228 Q 53.64 14.136 53.106 15.63 Q 52.572 17.124 51.492 17.976 Q 50.412 18.828 48.768 18.828 Q 46.692 18.828 45.432 17.364 Z M 13.644 0.828 L 19.536 0.828 L 19.536 15.432 Q 19.536 16.368 20.118 16.758 Q 20.7 17.148 21.624 17.148 Q 22.2 17.148 22.716 17.028 Q 23.232 16.908 23.748 16.704 L 24.288 18.18 Q 23.772 18.432 23.01 18.63 Q 22.248 18.828 21.288 18.828 Q 19.608 18.828 18.564 17.898 Q 17.52 16.968 17.52 15.324 L 17.52 2.424 L 13.644 2.424 L 13.644 0.828 Z M 9.216 15.984 L 10.2 17.304 Q 9.372 18.012 8.208 18.42 Q 7.044 18.828 5.928 18.828 Q 4.044 18.828 2.718 18.018 Q 1.392 17.208 0.696 15.738 Q 0 14.268 0 12.288 Q 0 10.392 0.702 8.886 Q 1.404 7.38 2.73 6.516 Q 4.056 5.652 5.952 5.652 Q 7.164 5.652 8.226 6.018 Q 9.288 6.384 10.176 7.116 L 9.192 8.46 Q 8.388 7.896 7.578 7.614 Q 6.768 7.332 5.928 7.332 Q 4.296 7.332 3.24 8.556 Q 2.184 9.78 2.184 12.288 Q 2.184 13.968 2.67 15.03 Q 3.156 16.092 4.002 16.59 Q 4.848 17.088 5.928 17.088 Q 6.876 17.088 7.698 16.776 Q 8.52 16.464 9.216 15.984 Z M 29.616 5.916 L 35.412 5.916 L 35.412 16.956 L 38.976 16.956 L 38.976 18.552 L 29.496 18.552 L 29.496 16.956 L 33.396 16.956 L 33.396 7.512 L 29.616 7.512 L 29.616 5.916 Z M 45.432 9.3 L 45.432 15.564 Q 45.924 16.296 46.674 16.722 Q 47.424 17.148 48.324 17.148 Q 49.896 17.148 50.688 15.948 Q 51.48 14.748 51.48 12.216 Q 51.48 10.56 51.168 9.462 Q 50.856 8.364 50.22 7.818 Q 49.584 7.272 48.588 7.272 Q 47.544 7.272 46.746 7.902 Q 45.948 8.532 45.432 9.3 Z M 68.136 5.916 L 67.848 10.188 L 66.192 10.188 L 66.192 7.44 L 66.396 5.916 L 68.136 5.916 Z M 33.804 0 Q 34.476 0 34.878 0.408 Q 35.28 0.816 35.28 1.404 Q 35.28 2.016 34.878 2.43 Q 34.476 2.844 33.804 2.844 Q 33.168 2.844 32.76 2.43 Q 32.352 2.016 32.352 1.404 Q 32.352 0.816 32.76 0.408 Q 33.168 0 33.804 0 Z" vector-effect="non-scaling-stroke"/></g></svg>
</svg>
